<?xml version="1.0" standalone="no"?>
<!DOCTYPE svg PUBLIC "-//W3C//DTD SVG 20010904//EN"
 "http://www.w3.org/TR/2001/REC-SVG-20010904/DTD/svg10.dtd">
<svg version="1.0" xmlns="http://www.w3.org/2000/svg"
 width="426.000000pt" height="426.000000pt" viewBox="0 0 426.000000 426.000000"
 preserveAspectRatio="xMidYMid meet">
<metadata>
Created by potrace 1.14, written by Peter Selinger 2001-2017
</metadata>
<g transform="translate(0.000000,426.000000) scale(0.100000,-0.100000)"
fill="#000000" stroke="none">
<path d="M1954 4005 c-83 -7 -161 -18 -172 -24 -11 -6 -33 -11 -48 -11 -15 0
-41 -4 -58 -9 -17 -6 -67 -21 -112 -35 -114 -35 -371 -169 -492 -256 -123 -87
-282 -239 -311 -295 -25 -50 -47 -76 -87 -103 -39 -27 -244 -359 -244 -397 0
-4 -6 -21 -14 -38 -24 -55 -46 -140 -52 -202 -3 -33 -14 -78 -24 -100 -10 -22
-23 -53 -29 -69 -7 -16 -17 -103 -23 -193 -12 -169 -2 -389 22 -478 22 -78 42
-150 50 -180 5 -16 12 -45 15 -64 4 -19 18 -53 32 -75 13 -23 37 -69 53 -104
16 -34 48 -94 71 -133 23 -38 39 -72 37 -75 -7 -6 -88 131 -123 209 -28 60
-48 78 -87 76 -17 -1 -12 -4 16 -13 29 -9 42 -20 49 -40 18 -55 127 -251 171
-309 14 -19 26 -37 26 -41 0 -23 313 -356 335 -356 3 0 18 -14 33 -30 16 -17
32 -30 36 -30 3 0 28 -16 55 -35 26 -19 53 -35 60 -35 6 0 11 -4 11 -10 0 -5
15 -17 32 -26 18 -9 35 -20 38 -23 32 -40 272 -143 400 -172 19 -4 85 -21 147
-37 61 -17 152 -36 201 -42 116 -16 401 -8 502 14 122 26 204 49 214 58 6 4
18 8 28 8 23 0 189 55 241 80 22 11 46 20 52 20 7 0 37 18 69 40 31 22 76 50
99 61 47 24 104 66 157 115 19 18 58 52 85 75 28 23 59 52 69 66 11 13 51 55
89 94 37 39 80 90 95 113 15 22 43 62 64 89 52 67 109 183 113 231 8 89 36
187 63 219 8 9 12 17 7 17 -4 0 -3 6 3 13 5 6 12 30 14 53 3 22 12 54 20 70
58 110 59 115 63 371 2 133 6 247 9 252 3 5 -3 31 -15 58 -11 26 -23 57 -25
68 -9 41 -16 91 -19 135 -2 25 -4 45 -5 45 -1 0 -4 15 -7 34 -2 18 -16 58 -30
89 -20 45 -24 64 -19 103 6 40 3 55 -17 86 -13 21 -29 54 -37 73 -15 38 -58
100 -77 113 -24 15 -13 26 17 17 17 -5 30 -6 30 -4 0 3 -13 10 -30 15 -16 6
-30 16 -30 21 0 6 -15 29 -33 52 -19 23 -56 73 -82 111 -26 39 -44 59 -40 45
4 -14 19 -40 33 -58 14 -18 22 -35 20 -38 -6 -5 -67 74 -87 113 -6 12 -48 60
-94 106 -72 74 -111 107 -243 202 -128 92 -423 229 -569 264 -22 5 -62 15 -90
21 -132 33 -407 44 -621 25z"/>
<path d="M4121 3174 c0 -11 3 -14 6 -6 3 7 2 16 -1 19 -3 4 -6 -2 -5 -13z"/>
<path d="M15 2640 c27 -12 35 -12 35 0 0 6 -12 10 -27 9 -25 0 -26 -1 -8 -9z"/>
<path d="M3726 1040 c-9 -17 -21 -30 -27 -30 -5 0 -9 -8 -9 -17 0 -10 -20 -40
-45 -68 -24 -27 -45 -53 -45 -57 0 -5 -5 -8 -11 -8 -13 0 -58 -46 -77 -78 -33
-59 42 4 116 96 18 22 46 47 62 54 17 7 30 20 30 29 0 9 7 36 15 59 18 52 15
60 -9 20z"/>
</g>
</svg>
